Coordinates
version=1
nRows=17
nColumns=34
inDegrees=yes

Units are S.I. units (second, meters, Newtons, ...)
If the header above contains a line with 'inDegrees', this indicates whether rotational values are in degrees (yes) or radians (no).

endheader
time	pelvis_tilt	pelvis_list	pelvis_rotation	pelvis_tx	pelvis_ty	pelvis_tz	hip_flexion_r	hip_adduction_r	hip_rotation_r	knee_angle_r	ankle_angle_r	subtalar_angle_r	mtp_angle_r	hip_flexion_l	hip_adduction_l	hip_rotation_l	knee_angle_l	ankle_angle_l	subtalar_angle_l	mtp_angle_l	lumbar_extension	lumbar_bending	lumbar_rotation	arm_flex_r	arm_add_r	arm_rot_r	elbow_flex_r	pro_sup_r	arm_flex_l	arm_add_l	arm_rot_l	elbow_flex_l	pro_sup_l
     12.51666670	      0.18830709	     -3.30021398	   -181.54831195	      0.13255412	      1.03233267	      0.14793907	     20.66359683	      4.31398318	      1.82492326	     47.74176639	     14.90935333	    -18.36697156	      0.00000000	     27.30630726	     -1.64788299	      0.52891830	    130.55489275	     -4.69972125	    -10.99794322	      0.00000000	    -21.73783133	      0.12075247	      0.92257261	      6.78362601	    -28.06438702	      9.90771787	     99.09750737	     99.48669380	    -14.50791225	    -29.08544062	      8.95609544	     83.39224348	     89.02266488
     12.52500000	      0.91046866	     -2.92291138	   -182.20049912	      0.13697351	      1.03156327	      0.14755483	     18.93203208	      4.76232582	      2.66821643	     48.30222259	     17.03757817	    -17.72977311	      0.00000000	     32.34659553	     -2.44181659	      0.36119777	    130.10523442	     -2.36936509	     -9.26550299	      0.00000000	    -21.26803367	      0.46856344	      1.40214509	     11.81594156	    -28.57779822	     13.70178941	     98.19328575	     98.27087513	    -19.05449888	    -28.00694863	      4.40316514	     84.53975973	     89.50997130
     12.53333330	      1.67684618	     -2.55071406	   -182.74402445	      0.14027326	      1.03233775	      0.14774911	     16.81158578	      4.95199433	      3.18363089	     48.05432641	     18.52415471	    -16.91738466	      0.00000000	     37.31902549	     -3.13880322	      0.25795138	    128.80371939	     -0.63544861	     -8.15503144	      0.00000000	    -20.69892814	      0.94248510	      3.80994044	     13.71601017	    -29.55702911	     14.08720170	     99.84540048	     98.14371483	    -20.87821461	    -28.01386032	      3.84795069	     85.03760310	     89.54094321
     12.54166670	      2.46620554	     -2.34462382	   -183.04282525	      0.14241905	      1.03510985	      0.14805865	     14.27632534	      4.71024994	      3.32274479	     47.05550458	     19.43184326	    -15.58349944	      0.00000000	     42.11572057	     -3.48856921	      0.15598086	    126.54554887	      0.87322553	     -8.44915172	      0.00000000	    -19.95239259	      1.16144512	      4.65856879	     16.43159971	    -29.47593197	     15.30097362	    100.80920665	     97.44328788	    -24.52519603	    -27.03853861	      0.50249722	     86.75129684	     89.55325082
     12.55000000	      3.15797215	     -2.17908692	   -183.16645247	      0.14322425	      1.03936374	      0.14879260	     11.18523883	      4.26408855	      3.13810855	     45.24862641	     18.68114956	    -14.76575915	      0.00000000	     46.36668603	     -3.56671514	     -0.14116253	    123.42723205	      1.48641579	    -10.30202609	      0.00000000	    -18.89677624	      1.58155812	      6.49321942	     17.60246985	    -30.14529321	     15.99858359	    102.68057989	     97.38647233	    -26.40335280	    -26.99816949	      0.08425567	     87.86587551	     89.57013017
     12.55833330	      3.77364198	     -2.35115297	   -183.15483050	      0.14222126	      1.04484471	      0.14932948	      7.69414458	      3.39462072	      2.71865941	     42.70508412	     16.37772765	    -13.91050618	      0.00000000	     50.01164050	     -3.16520092	     -0.82250842	    119.29483123	      1.21569958	    -12.84518444	      0.00000000	    -17.83152276	      1.51162034	      7.58922287	     18.28311441	    -30.11006519	     16.21723374	    104.56306903	     97.16009889	    -29.08954842	    -26.45469544	     -1.87936953	     89.46609178	     89.50724094
     12.56666670	      4.13207340	     -2.56009910	   -182.87391121	      0.13972901	      1.05056803	      0.15060103	      3.78131495	      2.37152484	      1.82509459	     39.72721557	     12.89292746	    -12.94886103	      0.00000000	     52.85861379	     -2.35517723	     -1.47202503	    114.64496484	      0.76887527	    -15.76972744	      0.00000000	    -16.74612624	      1.53848460	      8.42454889	     18.40940800	    -30.06718725	     16.43621695	    106.41465353	     97.03351920	    -31.60921709	    -26.06571451	     -3.17287175	     90.83928542	     89.48362566
     12.57500000	      4.22426235	     -2.83224023	   -182.55603439	      0.13583043	      1.05661365	      0.15197742	     -0.56158246	      1.25435000	      0.72591690	     36.38040455	      8.51081468	    -11.63758612	      0.00000000	     54.85528273	     -1.43073625	     -2.33562125	    109.10329750	     -0.23174218	    -17.64024750	      0.00000000	    -15.69170473	      1.51195831	      9.15786021	     18.21655907	    -29.95351988	     16.48728376	    108.24873024	     96.91961958	    -34.22067756	    -25.60400669	     -4.60778502	     92.35832534	     89.44603807
     12.58333330	      4.28285464	     -3.01831464	   -182.12920092	      0.13073853	      1.06268220	      0.15375275	     -4.84555367	      0.27793293	     -0.56000918	     33.05262026	      3.68087243	    -10.16197608	      0.00000000	     56.19214143	     -0.52177395	     -3.05683945	    103.20323302	     -2.11339335	    -19.52166977	      0.00000000	    -14.53778915	      1.58186846	      9.77092239	     17.50506418	    -29.97359425	     16.56381148	    110.10433938	     96.86360746	    -36.76719643	    -25.25294915	     -5.57926725	     93.49713721	     89.40446792
     12.59166670	      4.22083267	     -3.00811865	   -181.70087445	      0.12598027	      1.06887952	      0.15499171	     -8.94259487	     -0.42733013	     -1.84506936	     29.93688092	     -1.88498979	     -8.70504419	      0.00000000	     56.76457985	      0.03285804	     -3.78474316	     96.59962537	     -5.27368416	    -22.52860289	      0.00000000	    -13.58778673	      1.78274540	     10.38086276	     16.61165540	    -29.91201093	     16.35948836	    111.98846943	     96.80611986	    -39.18564861	    -24.84253625	     -6.77645616	     94.77368534	     89.33659274
     12.60000000	      4.02689624	     -2.96951735	   -181.13394040	      0.12144196	      1.07483285	      0.15540642	    -12.74082075	     -0.87305934	     -2.87047426	     27.29294669	     -7.23622739	     -7.33569016	      0.00000000	     56.58253566	      0.44056111	     -4.02647332	     90.37801781	     -8.06284963	    -24.36982166	      0.00000000	    -12.72624368	      1.98688832	     10.81300296	     15.57697587	    -29.80341854	     16.11620838	    113.69372128	     96.76432611	    -41.40129448	    -24.63216814	     -7.94144362	     95.96182933	     89.25942327
     12.60833330	      3.91023514	     -2.70508947	   -180.58233361	      0.11754429	      1.08097109	      0.15541474	    -15.82044525	     -0.91187565	     -3.38563610	     25.47968435	    -12.14930358	     -6.43664613	      0.00000000	     55.94355725	      0.47287036	     -4.04075697	     83.78491992	    -10.55026192	    -25.38477937	      0.00000000	    -12.05736182	      2.29070875	     11.23912412	     14.50203752	    -29.53840664	     15.71217843	    115.24814575	     96.73165092	    -43.28681433	    -24.33190229	     -9.16920557	     97.01755360	     89.15417018
     12.61666670	      3.83212243	     -2.28211600	   -179.71160431	      0.11391286	      1.08683468	      0.15522058	    -18.20684913	     -0.47557560	     -3.13471536	     24.86877803	    -16.15254240	     -6.57664306	      0.00000000	     54.94414743	      0.59580568	     -3.70545300	     76.80546840	    -12.18407530	    -24.82810528	      0.00000000	    -11.38857942	      2.77671714	     11.34921056	     13.34128659	    -29.40735811	     15.35935716	    116.51085848	     96.72482379	    -44.70169259	    -24.26361493	    -10.18220081	     97.66269155	     89.04079289
     12.62500000	      3.63217922	     -1.79437781	   -178.77173835	      0.11106149	      1.09283174	      0.15488970	    -20.11755213	      0.32272288	     -1.89424930	     25.42703343	    -19.02105937	     -7.88334432	      0.00000000	     53.50150681	      0.75537201	     -3.28427756	     69.30464658	    -12.90027630	    -22.90739493	      0.00000000	    -11.02171065	      3.26950342	     11.40175213	     12.17946483	    -29.26597282	     14.95943945	    117.57354977	     96.73577811	    -45.61107474	    -24.25426454	    -11.14169006	     98.08685508	     88.89672477
     12.63333330	      3.47455722	     -1.40816697	   -177.95295568	      0.10871798	      1.09883702	      0.15421607	    -21.49454347	      1.21557913	      0.03762037	     27.00665269	    -20.72643489	     -9.75161616	      0.00000000	     51.95081173	      0.87947794	     -3.17573266	     61.49552824	    -13.19466040	    -19.87905195	      0.00000000	    -10.69824845	      3.64431989	     11.45469036	     11.13038757	    -28.98106135	     14.50857472	    118.04787318	     96.75414024	    -45.96461057	    -24.37277077	    -12.11162001	     98.14341573	     88.72706870
     12.64166670	      3.34628188	     -0.89579509	   -177.38851153	      0.10713200	      1.10390774	      0.15316187	    -22.48205987	      2.34823574	      2.53104819	     29.39352107	    -21.20369163	    -11.98804890	      0.00000000	     50.39009231	      0.75634423	     -3.29674967	     53.64889746	    -13.50617868	    -16.09437063	      0.00000000	    -10.51198734	      4.10520545	     11.73599590	     10.51314796	    -28.62103580	     13.46707158	    117.30921223	     96.76501715	    -45.88704364	    -24.36617902	    -12.93453355	     98.03107062	     88.52783509
     12.65000000	      3.24506118	     -0.29626132	   -176.93960856	      0.10613469	      1.10787775	      0.15228961	    -23.11641177	      3.60252223	      4.79022983	     32.46576821	    -21.33717000	    -14.52306653	      0.00000000	     48.64272708	      0.57301521	     -3.65153155	     45.63265267	    -14.06275165	    -12.00333267	      0.00000000	    -10.34007851	      4.65847617	     12.02982288	      9.93869729	    -28.33926695	     12.39855191	    116.17460429	     96.79006769	    -45.48424035	    -24.31736139	    -13.65801716	     97.77902987	     88.31735016
